<?xml version="1.0" encoding="UTF-8"?> <!-- Generator: Adobe Illustrator 22.0.1, SVG Export Plug-In . SVG Version: 6.00 Build 0) --> <svg xmlns="http://www.w3.org/2000/svg" xmlns:xlink="http://www.w3.org/1999/xlink" id="Layer_1" x="0px" y="0px" viewBox="0 0 582.8 100" style="enable-background:new 0 0 582.8 100;" xml:space="preserve"> <style type="text/css"> .st0{fill:#FFFFFF;} .st1{fill:#191919;} .st2{clip-path:url(#SVGID_2_);} .st3{clip-path:url(#SVGID_4_);fill:#191919;} </style> <g> <path class="st0" d="M94,83.8c0,5.5-4.5,10-10,10H16c-5.5,0-10-4.5-10-10v-68c0-5.5,4.5-10,10-10h68c5.5,0,10,4.5,10,10V83.8z"></path> <path class="st1" d="M84,0H16C7.2,0,0,7.2,0,16v68c0,8.8,7.2,16,16,16h68c8.8,0,16-7.2,16-16V16C100,7.2,92.8,0,84,0z M94,84 c0,5.5-4.5,10-10,10H16c-5.5,0-10-4.5-10-10V16c0-5.5,4.5-10,10-10h68c5.5,0,10,4.5,10,10V84z"></path> <g> <defs> <path id="SVGID_1_" d="M59.9,76.8H40.2c-0.4,0-0.7-0.3-0.7-0.7V42.5c0-0.5-0.4-0.9-0.9-0.9H21c-0.4,0-0.7-0.3-0.7-0.7V23.6 c0-0.4,0.3-0.7,0.7-0.7h58c0.4,0,0.7,0.3,0.7,0.7v17.4c0,0.4-0.3,0.7-0.7,0.7H61.3c-0.4,0-0.7,0.3-0.7,0.7v33.7 C60.6,76.5,60.3,76.8,59.9,76.8z"></path> </defs> <use xlink:href="#SVGID_1_" style="overflow:visible;fill-rule:evenodd;clip-rule:evenodd;fill:#191919;"></use> <clipPath id="SVGID_2_"> <use xlink:href="#SVGID_1_" style="overflow:visible;"></use> </clipPath> <g class="st2"> <defs> <rect id="SVGID_3_" x="-427.2" y="-324.2" width="885.1" height="720.2"></rect> </defs> <use xlink:href="#SVGID_3_" style="overflow:visible;fill:#191919;"></use> <clipPath id="SVGID_4_"> <use xlink:href="#SVGID_3_" style="overflow:visible;"></use> </clipPath> <rect x="19.4" y="21.9" class="st3" width="61.2" height="55.8"></rect> </g> </g> <g> <path class="st1" d="M162.4,35.7h-12.7V70h-8.9V35.7h-12.5v-7.3h21.4h12.7V35.7z"></path> <path class="st1" d="M191,41.4c1.8,1.9,2.7,5,2.7,9.2V70h-8.6V50.6c0-1.9-0.4-3.2-1.2-3.9c-0.8-0.8-2-1.1-3.6-1.1 c-2.3,0-4,0.8-5,2.5v22h-8.6V28.4h8.6v14c1-1.3,2.2-2.2,3.6-2.9c1.4-0.7,2.9-1,4.5-1C186.7,38.5,189.2,39.5,191,41.4z"></path> <path class="st1" d="M225.9,57.4h-19.6c0.3,1.9,1.1,3.5,2.4,4.6c1.3,1.1,2.9,1.7,4.9,1.7c1.5,0,2.9-0.3,4.1-0.8 c1.3-0.6,2.3-1.4,3.2-2.5l4.1,4.8c-1.1,1.6-2.7,2.9-4.8,3.9c-2.1,1.1-4.5,1.6-7.3,1.6c-3.2,0-5.9-0.7-8.2-2 c-2.3-1.3-4.1-3.1-5.4-5.4c-1.2-2.3-1.9-4.8-1.9-7.6v-1.1c0-3.1,0.6-5.8,1.7-8.3c1.2-2.4,2.8-4.3,5-5.7c2.2-1.4,4.8-2,7.8-2 c2.9,0,5.4,0.6,7.5,1.9c2.1,1.2,3.6,3,4.7,5.3c1.1,2.3,1.6,5,1.6,8V57.4z M217.5,50.9c0-1.7-0.5-3-1.4-4s-2.2-1.5-4-1.5 c-1.6,0-2.9,0.5-3.8,1.6c-0.9,1.1-1.5,2.6-1.8,4.5h11V50.9z"></path> <g> <path class="st1" d="M273.5,35.7h-12.7V70h-8.9V35.7h-12.5v-7.3h21.4h12.7V35.7z"></path> <path class="st1" d="M293.8,38.6c0.5,0.1,0.9,0.1,1.2,0.2l-0.1,8.3c-1.1-0.2-2.1-0.2-3.1-0.2c-3.1,0-5.1,1-6,3.1v20h-8.6V39.1 h8.1l0.3,3.7c0.8-1.4,1.7-2.5,2.9-3.2c1.2-0.7,2.5-1.1,4-1.1C292.8,38.5,293.3,38.6,293.8,38.6z"></path> <path class="st1" d="M326.4,39.1V70h-8.1l-0.2-3.2c-1,1.2-2.2,2.2-3.6,2.8c-1.4,0.7-3,1-4.8,1c-3.2,0-5.7-0.9-7.6-2.8 c-1.8-1.9-2.7-4.8-2.7-8.7v-20h8.6v20.1c0,1.5,0.4,2.6,1.1,3.4c0.8,0.7,1.8,1.1,3.1,1.1c2.6,0,4.5-0.9,5.5-2.8V39.1H326.4z"></path> <path class="st1" d="M331.5,48.2c0-1.8,0.5-3.4,1.5-4.8c1-1.5,2.4-2.6,4.3-3.5c1.9-0.9,4.1-1.3,6.6-1.3c2.6,0,5,0.4,6.9,1.3 c2,0.8,3.5,2,4.6,3.5c1.1,1.5,1.6,3.2,1.6,5.2h-8.6c0-1.2-0.4-2.2-1.1-2.9c-0.7-0.7-1.9-1-3.4-1c-1.3,0-2.3,0.3-3,0.9 c-0.8,0.6-1.1,1.4-1.1,2.3c0,0.9,0.4,1.6,1.3,2.2c0.8,0.6,2.3,1,4.3,1.4c2.4,0.5,4.5,1.1,6.2,1.8c1.7,0.7,3,1.8,4,3 c1,1.3,1.5,2.9,1.5,4.9c0,1.8-0.5,3.4-1.6,4.9c-1.1,1.4-2.6,2.6-4.6,3.4c-2,0.8-4.3,1.2-6.9,1.2c-2.8,0-5.2-0.5-7.2-1.5 c-2-1-3.6-2.3-4.6-3.9c-1.1-1.6-1.6-3.3-1.6-5h8.1c0.1,1.5,0.6,2.6,1.6,3.3c1,0.7,2.3,1.1,3.9,1.1c1.5,0,2.6-0.3,3.4-0.8 c0.8-0.6,1.2-1.3,1.2-2.3c0-0.6-0.2-1.1-0.5-1.5c-0.4-0.4-1-0.8-1.9-1.2c-0.9-0.4-2.2-0.7-3.8-1.1 C335.1,56.1,331.5,52.9,331.5,48.2z"></path> <path class="st1" d="M378.7,63.3v6.5c-1.5,0.5-3.2,0.8-5.1,0.8c-6.1,0-9.1-3.1-9.1-9.3v-16h-4.4v-6.3h4.4v-7.7h8.6v7.7h5.2v6.3 h-5.2v14.9c0,1.2,0.2,2.1,0.7,2.5c0.5,0.4,1.3,0.7,2.4,0.7C377.2,63.5,378,63.5,378.7,63.3z"></path> </g> <g> <path class="st1" d="M423.3,30.2c2.4,1.2,4.2,2.8,5.5,4.9c1.3,2.1,1.9,4.5,1.9,7.2c0,2.7-0.6,5-1.9,7c-1.3,2-3.1,3.5-5.5,4.6 c-2.4,1.1-5.2,1.6-8.4,1.6h-7.4V70h-9V28.4h16.4C418.1,28.4,420.9,29,423.3,30.2z M420,46.7c1.1-1.1,1.7-2.5,1.7-4.3 c0-1.2-0.2-2.3-0.7-3.3c-0.5-1-1.2-1.8-2.2-2.4c-1-0.6-2.3-0.9-3.8-0.9h-7.4v12.6h7.4C417.2,48.3,418.9,47.7,420,46.7z"></path> <path class="st1" d="M451.1,38.6c0.5,0.1,0.9,0.1,1.2,0.2l-0.1,8.3c-1.1-0.2-2.1-0.2-3.1-0.2c-3.1,0-5.1,1-6,3.1v20h-8.6V39.1 h8.1l0.3,3.7c0.8-1.4,1.7-2.5,2.9-3.2c1.2-0.7,2.5-1.1,4-1.1C450.1,38.5,450.6,38.5,451.1,38.6z"></path> <path class="st1" d="M456,46.1c1.2-2.4,2.8-4.3,5-5.6c2.2-1.4,4.8-2,7.9-2c3.1,0,5.7,0.7,8,2c2.2,1.4,3.9,3.2,5.1,5.6 c1.2,2.4,1.7,5.1,1.7,8.1v0.6c0,3-0.6,5.7-1.7,8.1c-1.2,2.4-2.8,4.2-5,5.6c-2.2,1.4-4.8,2-7.9,2c-3.1,0-5.7-0.7-8-2 c-2.2-1.4-3.9-3.2-5.1-5.6c-1.2-2.4-1.7-5.1-1.7-8.1v-0.6C454.3,51.2,454.9,48.5,456,46.1z M464.4,61.2c1,1.6,2.5,2.4,4.7,2.4 c2.1,0,3.6-0.8,4.6-2.4c1-1.6,1.5-3.7,1.5-6.4v-0.6c0-2.6-0.5-4.8-1.5-6.4c-1-1.6-2.5-2.4-4.7-2.4c-2.1,0-3.6,0.8-4.6,2.4 c-1,1.6-1.5,3.8-1.5,6.4v0.6C462.9,57.5,463.4,59.7,464.4,61.2z"></path> <path class="st1" d="M497.3,69.4c0,3.5-1,6.3-2.9,8.2c-1.9,1.9-4.6,2.9-8,2.9c-1.5,0-3-0.2-4.2-0.5v-6.8c0.9,0.2,1.8,0.3,2.6,0.3 c2.6,0,3.8-1.3,3.8-4V39.1h8.7V69.4z M496.2,28.3c0.9,0.8,1.3,1.9,1.3,3.2c0,1.3-0.4,2.4-1.3,3.2c-0.9,0.8-2,1.2-3.5,1.2 c-1.4,0-2.6-0.4-3.5-1.2c-0.9-0.8-1.3-1.9-1.3-3.2c0-1.3,0.4-2.4,1.3-3.2c0.9-0.8,2.1-1.2,3.5-1.2 C494.2,27.1,495.4,27.5,496.2,28.3z"></path> <path class="st1" d="M530.2,57.3h-19.6c0.3,1.9,1.1,3.5,2.4,4.6c1.3,1.1,2.9,1.7,4.9,1.7c1.5,0,2.9-0.3,4.1-0.8 c1.3-0.6,2.3-1.4,3.2-2.5l4.1,4.8c-1.1,1.6-2.7,2.9-4.8,3.9c-2.1,1.1-4.5,1.6-7.3,1.6c-3.2,0-5.9-0.7-8.2-2 c-2.3-1.3-4.1-3.1-5.4-5.4c-1.2-2.3-1.9-4.8-1.9-7.6v-1.1c0-3.1,0.6-5.8,1.7-8.3c1.2-2.4,2.8-4.3,5-5.7c2.2-1.4,4.8-2,7.8-2 c2.9,0,5.4,0.6,7.5,1.9c2.1,1.2,3.6,3,4.7,5.3c1.1,2.3,1.6,5,1.6,8V57.3z M521.7,50.9c0-1.7-0.5-3-1.4-4c-0.9-1-2.2-1.5-4-1.5 c-1.6,0-2.9,0.5-3.8,1.6c-0.9,1.1-1.5,2.6-1.8,4.5h11V50.9z"></path> <path class="st1" d="M561,59.2c0,2.2-0.6,4.2-1.7,5.9c-1.1,1.7-2.7,3.1-4.6,4.1c-2,1-4.1,1.5-6.5,1.5c-3.1,0-5.7-0.7-7.9-2 c-2.2-1.4-3.8-3.2-4.8-5.6c-1.1-2.4-1.6-5-1.6-8.1v-0.7c0-3,0.5-5.7,1.6-8.1c1.1-2.4,2.7-4.2,4.8-5.6c2.1-1.4,4.8-2,7.8-2 c2.5,0,4.8,0.5,6.7,1.5c2,1,3.5,2.4,4.6,4.2c1.1,1.8,1.6,4,1.6,6.5h-8.1c0-1.5-0.5-2.8-1.3-3.8c-0.9-1-2.1-1.5-3.7-1.5 c-2.1,0-3.5,0.8-4.3,2.4c-0.8,1.6-1.2,3.7-1.2,6.4v0.7c0,2.7,0.4,4.9,1.2,6.4c0.8,1.5,2.2,2.3,4.4,2.3c1.5,0,2.7-0.4,3.6-1.2 c0.9-0.8,1.4-1.9,1.4-3.3H561z"></path> <path class="st1" d="M582.8,63.3v6.5c-1.5,0.5-3.2,0.8-5.1,0.8c-6.1,0-9.1-3.1-9.1-9.3v-16h-4.4v-6.3h4.4v-7.7h8.6v7.7h5.2v6.3 h-5.2v14.9c0,1.2,0.2,2.1,0.7,2.5c0.5,0.4,1.3,0.7,2.4,0.7C581.3,63.5,582.1,63.4,582.8,63.3z"></path> </g> </g> </g> </svg> 